# Blender v2.79 (sub 0) OBJ File: 'harvester_ship.blend'
# www.blender.org
mtllib harvester_ship.mtl
o Cube_Cube.002
v -0.191366 -0.100000 -0.416071
v -0.191366 0.100000 -0.416071
v -0.191366 -0.100000 0.416071
v -0.191366 0.100000 0.416071
v -0.251488 0.052055 -0.416071
v -0.251488 0.052055 0.416071
v -0.251488 -0.050723 0.416071
v -0.251488 -0.050723 -0.416071
v -0.153283 -0.100000 -0.416071
v -0.153283 0.100000 0.416071
v -0.153283 0.100000 -0.416071
v -0.153283 -0.100000 0.416071
v -0.201441 0.052055 -0.445007
v -0.121785 0.007032 0.585732
v -0.121785 -0.050723 0.585732
v -0.201441 -0.050723 -0.445007
v -0.010694 0.100000 -0.416071
v -0.010694 -0.100000 0.416071
v -0.014054 0.052055 -0.445007
v -0.014054 -0.050723 -0.445007
v -0.010694 -0.100000 -0.416071
v -0.010694 0.100000 0.416071
v -0.008497 0.007032 0.585732
v -0.008497 -0.050723 0.585732
v -0.191366 -0.100000 -0.273591
v -0.191366 0.100000 -0.155045
v -0.251488 0.052055 -0.273591
v -0.251488 -0.050723 -0.273591
v -0.153283 0.100000 -0.155045
v -0.153283 -0.100000 -0.273591
v -0.010694 -0.100000 -0.273591
v -0.010694 0.100000 -0.155045
v -0.010694 0.292172 -0.516193
v -0.010694 0.193220 -0.200665
v -0.251488 0.013995 -0.416071
v -0.251488 0.013995 0.416071
v -0.121785 -0.014355 0.585732
v -0.201441 0.013995 -0.445007
v -0.008497 -0.014355 0.585732
v -0.014054 0.013995 -0.445007
v -0.251488 0.013995 -0.231438
v -0.251488 -0.018364 0.416071
v -0.121785 -0.032539 0.585732
v -0.201441 -0.018364 -0.445007
v -0.008497 -0.032539 0.585732
v -0.014054 -0.018364 -0.445007
v -0.251488 -0.018364 -0.231438
v -0.251488 -0.018364 -0.416071
v -0.191366 -0.100000 0.311147
v -0.153283 0.100000 0.329182
v -0.010694 0.100000 0.329182
v -0.191366 0.100000 0.329182
v -0.251488 0.052055 0.311147
v -0.251488 -0.050723 0.311147
v -0.153283 -0.100000 0.311147
v -0.010694 -0.100000 0.311147
v -0.251488 0.013995 0.311147
v -0.251488 -0.018364 0.311147
v -0.575142 -0.104592 0.075915
v -0.575142 -0.104592 -0.350244
v -0.575142 -0.117504 -0.350244
v -0.575142 -0.117504 0.075915
v 0.191366 -0.100000 -0.416071
v 0.191366 0.100000 -0.416071
v 0.191366 -0.100000 0.416071
v 0.191366 0.100000 0.416071
v 0.000000 -0.100000 -0.416071
v 0.000000 0.100000 -0.416071
v 0.000000 -0.100000 0.416071
v 0.000000 0.100000 0.416071
v 0.251488 0.052055 -0.416071
v 0.251488 0.052055 0.416071
v 0.000000 0.007032 0.585732
v 0.000000 0.052055 -0.445007
v 0.251488 -0.050723 0.416071
v 0.000000 -0.050723 0.585732
v 0.000000 -0.050723 -0.445007
v 0.251488 -0.050723 -0.416071
v 0.153283 -0.100000 -0.416071
v 0.153283 0.100000 0.416071
v 0.153283 0.100000 -0.416071
v 0.153283 -0.100000 0.416071
v 0.201441 0.052055 -0.445007
v 0.121785 0.007032 0.585732
v 0.121785 -0.050723 0.585732
v 0.201441 -0.050723 -0.445007
v 0.010694 0.100000 -0.416071
v 0.010694 -0.100000 0.416071
v 0.014054 0.052055 -0.445007
v 0.014054 -0.050723 -0.445007
v 0.010694 -0.100000 -0.416071
v 0.010694 0.100000 0.416071
v 0.008497 0.007032 0.585732
v 0.008497 -0.050723 0.585732
v 0.191366 -0.100000 -0.273591
v 0.191366 0.100000 -0.155045
v 0.000000 0.100000 -0.155045
v 0.000000 -0.100000 -0.273591
v 0.251488 0.052055 -0.273591
v 0.251488 -0.050723 -0.273591
v 0.153283 0.100000 -0.155045
v 0.153283 -0.100000 -0.273591
v 0.010694 -0.100000 -0.273591
v 0.010694 0.100000 -0.155045
v 0.010694 0.292172 -0.516193
v 0.000000 0.292172 -0.516193
v 0.000000 0.193220 -0.200665
v 0.010694 0.193220 -0.200665
v 0.251488 0.013995 -0.416071
v 0.251488 0.013995 0.416071
v 0.000000 -0.014355 0.585732
v 0.000000 0.013995 -0.445007
v 0.121785 -0.014355 0.585732
v 0.201441 0.013995 -0.445007
v 0.008497 -0.014355 0.585732
v 0.014054 0.013995 -0.445007
v 0.251488 0.013995 -0.231438
v 0.251488 -0.018364 0.416071
v 0.000000 -0.032539 0.585732
v 0.000000 -0.018364 -0.445007
v 0.121785 -0.032539 0.585732
v 0.201441 -0.018364 -0.445007
v 0.008497 -0.032539 0.585732
v 0.014054 -0.018364 -0.445007
v 0.251488 -0.018364 -0.231438
v 0.251488 -0.018364 -0.416071
v 0.191366 -0.100000 0.311147
v 0.000000 0.100000 0.329182
v 0.153283 0.100000 0.329182
v 0.010694 0.100000 0.329182
v 0.191366 0.100000 0.329182
v 0.000000 -0.100000 0.311147
v 0.251488 0.052055 0.311147
v 0.251488 -0.050723 0.311147
v 0.153283 -0.100000 0.311147
v 0.010694 -0.100000 0.311147
v 0.251488 0.013995 0.311147
v 0.251488 -0.018364 0.311147
v 0.575142 -0.104592 0.075915
v 0.575142 -0.104592 -0.350244
v 0.575142 -0.117504 -0.350244
v 0.575142 -0.117504 0.075915
vn -0.3641 0.7457 0.5580
vn -0.6235 0.7818 0.0000
vn 0.0000 -1.0000 0.0000
vn 0.0000 1.0000 0.0000
vn 0.0000 0.5167 -0.8562
vn 0.0000 0.0000 -1.0000
vn -1.0000 0.0000 0.0000
vn -0.7944 0.0000 0.6073
vn -0.4100 -0.8170 0.4054
vn -0.6339 -0.7734 0.0000
vn 0.0000 -0.5064 -0.8623
vn -0.2649 -0.5280 -0.8069
vn 0.0000 -0.9603 0.2789
vn 0.0000 0.0000 1.0000
vn -0.5005 0.0000 -0.8657
vn -0.2629 0.5384 -0.8006
vn 0.0000 0.8770 0.4805
vn 0.0000 -0.4621 -0.8869
vn 0.0000 0.9542 0.2992
vn 0.0000 0.4396 0.8982
vn 0.2929 -0.9561 0.0000
vn -0.3440 0.9390 0.0000
vn -0.5879 0.0000 0.8089
vn 0.3446 0.0000 -0.9388
vn 0.3641 0.7457 0.5580
vn 0.6235 0.7818 0.0000
vn 1.0000 0.0000 0.0000
vn 0.7944 0.0000 0.6073
vn 0.4100 -0.8170 0.4054
vn 0.6339 -0.7734 0.0000
vn 0.2649 -0.5280 -0.8069
vn 0.5005 0.0000 -0.8657
vn 0.2629 0.5384 -0.8006
vn -0.2929 -0.9561 0.0000
vn 0.3440 0.9390 0.0000
vn 0.5879 0.0000 0.8089
vn -0.3446 0.0000 -0.9388
usemtl None
s off
f 14//1 10//1 4//1 6//1
f 27//2 26//2 2//2 5//2
f 55//3 12//3 3//3 49//3
f 29//4 11//4 2//4 26//4
f 19//5 17//5 68//5 74//5
f 40//6 19//6 74//6 112//6
f 41//7 27//7 5//7 35//7
f 37//8 14//8 6//8 36//8
f 12//9 15//9 7//9 3//9
f 25//10 28//10 8//10 1//10
f 21//11 20//11 77//11 67//11
f 1//12 8//12 16//12 9//12
f 18//13 24//13 15//13 12//13
f 39//14 23//14 14//14 37//14
f 35//15 5//15 13//15 38//15
f 5//16 2//16 11//16 13//16
f 32//4 17//4 11//4 29//4
f 56//3 18//3 12//3 55//3
f 23//17 22//17 10//17 14//17
f 73//17 70//17 22//17 23//17
f 132//3 69//3 18//3 56//3
f 68//18 17//18 33//18 106//18
f 111//14 73//14 23//14 39//14
f 69//13 76//13 24//13 18//13
f 9//11 16//11 20//11 21//11
f 38//6 13//6 19//6 40//6
f 13//5 11//5 17//5 19//5
f 128//4 97//4 32//4 51//4
f 67//3 98//3 31//3 21//3
f 21//3 31//3 30//3 9//3
f 51//4 32//4 29//4 50//4
f 49//10 54//10 28//10 25//10
f 57//7 53//7 27//7 41//7
f 50//4 29//4 26//4 52//4
f 9//3 30//3 25//3 1//3
f 53//2 52//2 26//2 27//2
f 107//19 106//19 33//19 34//19
f 32//20 97//20 107//20 34//20
f 17//7 32//7 34//7 33//7
f 47//21 58//21 62//21 61//21
f 44//6 38//6 40//6 46//6
f 119//14 111//14 39//14 45//14
f 48//15 35//15 38//15 44//15
f 45//14 39//14 37//14 43//14
f 43//8 37//8 36//8 42//8
f 47//7 41//7 35//7 48//7
f 46//6 40//6 112//6 120//6
f 20//6 46//6 120//6 77//6
f 28//7 47//7 48//7 8//7
f 15//8 43//8 42//8 7//8
f 24//14 45//14 43//14 15//14
f 8//15 48//15 44//15 16//15
f 76//14 119//14 45//14 24//14
f 16//6 44//6 46//6 20//6
f 54//7 58//7 47//7 28//7
f 7//7 42//7 58//7 54//7
f 42//7 36//7 57//7 58//7
f 6//2 4//2 52//2 53//2
f 10//4 50//4 52//4 4//4
f 36//7 6//7 53//7 57//7
f 3//10 7//10 54//10 49//10
f 22//4 51//4 50//4 10//4
f 70//4 128//4 51//4 22//4
f 98//3 132//3 56//3 31//3
f 31//3 56//3 55//3 30//3
f 30//3 55//3 49//3 25//3
f 62//7 59//7 60//7 61//7
f 57//22 41//22 60//22 59//22
f 58//23 57//23 59//23 62//23
f 41//24 47//24 61//24 60//24
f 84//25 72//25 66//25 80//25
f 99//26 71//26 64//26 96//26
f 135//3 127//3 65//3 82//3
f 101//4 96//4 64//4 81//4
f 89//5 74//5 68//5 87//5
f 116//6 112//6 74//6 89//6
f 117//27 109//27 71//27 99//27
f 113//28 110//28 72//28 84//28
f 82//29 65//29 75//29 85//29
f 95//30 63//30 78//30 100//30
f 91//11 67//11 77//11 90//11
f 63//31 79//31 86//31 78//31
f 88//13 82//13 85//13 94//13
f 115//14 113//14 84//14 93//14
f 109//32 114//32 83//32 71//32
f 71//33 83//33 81//33 64//33
f 104//4 101//4 81//4 87//4
f 136//3 135//3 82//3 88//3
f 93//17 84//17 80//17 92//17
f 73//17 93//17 92//17 70//17
f 132//3 136//3 88//3 69//3
f 68//18 106//18 105//18 87//18
f 111//14 115//14 93//14 73//14
f 69//13 88//13 94//13 76//13
f 79//11 91//11 90//11 86//11
f 114//6 116//6 89//6 83//6
f 83//5 89//5 87//5 81//5
f 128//4 130//4 104//4 97//4
f 67//3 91//3 103//3 98//3
f 91//3 79//3 102//3 103//3
f 130//4 129//4 101//4 104//4
f 127//30 95//30 100//30 134//30
f 137//27 117//27 99//27 133//27
f 129//4 131//4 96//4 101//4
f 79//3 63//3 95//3 102//3
f 133//26 99//26 96//26 131//26
f 107//19 108//19 105//19 106//19
f 104//20 108//20 107//20 97//20
f 97//7 107//7 106//7 68//7
f 87//27 105//27 108//27 104//27
f 125//34 141//34 142//34 138//34
f 122//6 124//6 116//6 114//6
f 119//14 123//14 115//14 111//14
f 126//32 122//32 114//32 109//32
f 123//14 121//14 113//14 115//14
f 121//28 118//28 110//28 113//28
f 125//27 126//27 109//27 117//27
f 124//6 120//6 112//6 116//6
f 90//6 77//6 120//6 124//6
f 100//27 78//27 126//27 125//27
f 85//28 75//28 118//28 121//28
f 94//14 85//14 121//14 123//14
f 78//32 86//32 122//32 126//32
f 76//14 94//14 123//14 119//14
f 86//6 90//6 124//6 122//6
f 134//27 100//27 125//27 138//27
f 75//27 134//27 138//27 118//27
f 118//27 138//27 137//27 110//27
f 72//26 133//26 131//26 66//26
f 80//4 66//4 131//4 129//4
f 110//27 137//27 133//27 72//27
f 65//30 127//30 134//30 75//30
f 92//4 80//4 129//4 130//4
f 70//4 92//4 130//4 128//4
f 98//3 103//3 136//3 132//3
f 103//3 102//3 135//3 136//3
f 102//3 95//3 127//3 135//3
f 142//27 141//27 140//27 139//27
f 137//35 139//35 140//35 117//35
f 138//36 142//36 139//36 137//36
f 117//37 140//37 141//37 125//37
